<?xml version="1.0" encoding="utf-8"?>
<!-- Generator: Adobe Illustrator 16.0.0, SVG Export Plug-In . SVG Version: 6.00 Build 0)  -->
<!DOCTYPE svg PUBLIC "-//W3C//DTD SVG 1.1//EN" "http://www.w3.org/Graphics/SVG/1.1/DTD/svg11.dtd">
<svg version="1.1" id="Layer_1" xmlns="http://www.w3.org/2000/svg" xmlns:xlink="http://www.w3.org/1999/xlink" x="0px" y="0px"
	 width="67.587px" height="18.773px" viewBox="0 0 67.587 18.773" style="enable-background:new 0 0 67.587 18.773;"
	 xml:space="preserve">
<style type="text/css">
<![CDATA[
	.st0{fill:#E7000A;}
	.st1{clip-path:url(#SVGID_2_);}
	.st2{clip-path:url(#SVGID_4_);}
	.st3{clip-path:url(#SVGID_6_);}
	.st4{clip-path:url(#SVGID_8_);}
	.st5{clip-path:url(#SVGID_10_);}
	.st6{clip-path:url(#SVGID_12_);}
	.st7{clip-path:url(#SVGID_14_);}
	.st8{clip-path:url(#SVGID_16_);}
	.st9{clip-path:url(#SVGID_18_);}
]]>
</style>
<path class="st0" d="M64.873,9.821h2.715V0h-2.715V9.821z M61.311,9.821h2.714V0h-2.714V9.821z M51.3,2.656l-1.086,4.017
	l-1.218-4.017h-2.471l-1.098,4.017l-1.25-4.017h-3.873l-1.407,3.411L37.58,2.656H34.5l2.861,7.34c0,0,0,0.07-0.061,0.279
	c-0.059,0.21-0.258,0.729-0.608,1.097c-0.348,0.369-0.727,0.27-0.727,0.27s0.149-0.13,0.239-0.339c0.09-0.209,0.06-0.578-0.1-0.908
	c-0.16-0.328-0.599-0.587-1.276-0.458c-0.679,0.13-0.978,0.748-0.907,1.336c0.069,0.588,0.449,1.086,1.405,1.256
	c0.958,0.171,1.536-0.179,2.064-0.648c0.528-0.468,0.957-1.664,0.957-1.664l2.981-7.309l2.119,6.914h2.393l1.142-4.157l1.292,4.157
	h2.332l1.971-7.165H51.3z M57.531,5.077c0.005-0.386-0.069-0.799-0.111-0.935l-0.006-0.021c-0.041-0.135-0.107-0.36-0.376-0.634
	c-0.262-0.268-0.764-0.259-1.021-0.073c-0.205,0.148-0.447,0.495-0.526,0.938c-0.068,0.374-0.065,1.1-0.063,1.313h2.101
	C57.527,5.585,57.527,5.423,57.531,5.077 M60.022,4.336c0.533,1.015,0.452,2.336,0.441,2.336h-5.036v1.455
	c0,0,0.05,0.295,0.166,0.448s0.524,0.75,1.907,0.53c1.532-0.242,1.49-1.338,1.521-1.338h1.212c0,0-0.014,0.726-0.519,1.204
	c-0.503,0.48-1.396,0.974-2.394,1.077c-1,0.102-2.412,0.131-3.553-0.819c-0.667-0.554-0.967-1.158-1.163-1.712
	c-0.244-0.686-0.316-2.023,0.246-3.155c0.562-1.133,1.999-2.038,3.765-1.947C58.382,2.504,59.398,3.15,60.022,4.336 M31.807,5.077
	c0.005-0.384-0.069-0.798-0.11-0.935L31.69,4.12c-0.04-0.135-0.107-0.36-0.375-0.633c-0.263-0.267-0.765-0.258-1.022-0.073
	c-0.205,0.149-0.447,0.496-0.526,0.938c-0.067,0.374-0.064,1.1-0.062,1.313h2.1C31.803,5.585,31.803,5.423,31.807,5.077
	 M34.298,4.336c0.534,1.015,0.459,2.336,0.45,2.336h-5.044v1.455c0,0,0.051,0.295,0.166,0.448c0.116,0.153,0.522,0.75,1.905,0.53
	c1.534-0.242,1.49-1.338,1.521-1.338h1.213c0,0-0.014,0.726-0.518,1.204c-0.503,0.48-1.396,0.974-2.395,1.077
	c-0.998,0.102-2.412,0.131-3.552-0.819c-0.667-0.554-0.968-1.158-1.165-1.712c-0.243-0.686-0.315-2.023,0.247-3.155
	c0.563-1.133,1.998-2.038,3.766-1.947C32.659,2.504,33.674,3.15,34.298,4.336 M24.626,2.683c-1.014-0.431-2.007-0.174-2.581,0.101
	c-0.575,0.273-0.947,0.842-0.964,0.838V2.656h-2.828v7.165l2.828,0V4.669c0-0.103,0.34-0.483,0.726-0.69
	c0.387-0.207,0.846-0.09,1.005,0.102c0.228,0.273,0.228,0.581,0.227,0.753v4.986h2.792l-0.005-5.455
	C25.806,4.021,25.639,3.114,24.626,2.683 M14.384,5.264c-0.006-0.554-0.094-0.969-0.175-1.172c-0.145-0.367-0.406-0.779-0.846-0.779
	c-0.048,0-0.098,0.005-0.15,0.016c-0.236,0.044-0.46,0.293-0.665,0.74c-0.179,0.39-0.18,0.999-0.181,1.842
	c-0.001,0.243-0.001,0.506-0.007,0.787c-0.021,1.294,0.092,1.677,0.369,2.096c0.152,0.228,0.354,0.372,0.565,0.402
	c0.173,0.024,0.352-0.031,0.508-0.162c0.448-0.375,0.549-1.177,0.571-1.414C14.396,7.381,14.394,6.232,14.384,5.264 M16.959,4.277
	c0.55,0.946,0.613,2.318,0.226,3.432c-0.388,1.114-1.171,1.663-1.693,1.945c-0.522,0.282-1.34,0.429-2.145,0.429
	c-0.804,0-1.833-0.177-2.525-0.728C10.13,8.807,9.665,8.201,9.454,7.383c-0.212-0.818-0.342-2.282,0.531-3.44
	c0.871-1.156,1.971-1.368,2.477-1.456c0.451-0.081,0.749-0.07,0.792-0.07c0,0,0.982-0.057,1.772,0.253
	C15.816,2.981,16.409,3.332,16.959,4.277 M5.418,0H8.44v9.821H5.418V5.34h-2.37v4.481H0V0h3.048v4.09h2.37V0z"/>
<path d="M66.106,18.14c0.468,0,0.763-0.238,0.763-0.954c0-0.663-0.248-0.935-0.702-0.935h-0.554v1.889H66.106z M64.901,18.713
	v-3.034h1.304c0.94,0,1.378,0.468,1.378,1.495c0,1.019-0.459,1.539-1.425,1.539H64.901z M61.712,15.679h2.327v0.56h-1.633v0.663
	h1.412v0.563h-1.412v0.689h1.677v0.56h-2.371V15.679z M60.938,15.679v0.598H60.01v2.436H59.3v-2.436h-0.927v-0.598H60.938z
	 M55.08,17.192c0-1.105,0.494-1.573,1.478-1.573c0.606,0,1.001,0.199,1.204,0.685l-0.567,0.294
	c-0.139-0.303-0.316-0.394-0.641-0.394c-0.481,0-0.758,0.217-0.758,0.997c0,0.771,0.277,1.005,0.762,1.005
	c0.312,0,0.537-0.121,0.676-0.429l0.567,0.281c-0.22,0.472-0.624,0.715-1.265,0.715C55.547,18.773,55.08,18.275,55.08,17.192
	 M52.034,15.679h2.327v0.56h-1.633v0.663h1.412v0.563h-1.412v0.689h1.676v0.56h-2.37V15.679z M48.944,16.789l0.017,1.924h-0.671
	v-3.034h0.559l1.481,2.023l-0.018-2.023h0.676v3.034h-0.624L48.944,16.789z M45.227,16.789l0.017,1.924h-0.671v-3.034h0.559
	l1.482,2.023l-0.018-2.023h0.676v3.034h-0.624L45.227,16.789z M41.562,17.2c0,0.741,0.255,0.997,0.754,0.997
	c0.498,0,0.753-0.251,0.753-1.005c0-0.741-0.255-0.992-0.753-0.992C41.817,16.2,41.562,16.442,41.562,17.2 M40.847,17.192
	c0-1.071,0.477-1.573,1.473-1.573c1.036,0,1.469,0.507,1.469,1.577c0,1.071-0.477,1.578-1.473,1.578
	C41.293,18.773,40.847,18.262,40.847,17.192 M37.515,17.192c0-1.105,0.494-1.573,1.478-1.573c0.606,0,1,0.199,1.205,0.685
	l-0.568,0.294c-0.139-0.303-0.316-0.394-0.641-0.394c-0.481,0-0.759,0.217-0.759,0.997c0,0.771,0.277,1.005,0.763,1.005
	c0.312,0,0.538-0.121,0.676-0.429l0.567,0.281c-0.221,0.472-0.624,0.715-1.265,0.715C37.982,18.773,37.515,18.275,37.515,17.192
	 M33.516,15.679h2.058v0.212h-1.807v1.214h1.62v0.217h-1.62v1.391h-0.251V15.679z M29.968,17.195c0,1.023,0.39,1.356,1.07,1.356
	c0.685,0,1.079-0.325,1.079-1.36c0-1.023-0.394-1.353-1.079-1.353C30.358,15.839,29.968,16.156,29.968,17.195 M29.716,17.195
	c0-1.122,0.46-1.563,1.321-1.563c0.888,0,1.331,0.441,1.331,1.563c0,1.118-0.464,1.564-1.331,1.564
	C30.167,18.759,29.716,18.313,29.716,17.195 M25.626,15.891v1.4h0.914c0.455,0,0.732-0.234,0.732-0.711
	c0-0.463-0.243-0.689-0.75-0.689H25.626z M25.375,15.679h1.144c0.693,0,1.001,0.308,1.001,0.893c0,0.454-0.204,0.78-0.637,0.892
	l0.681,1.249h-0.273l-0.663-1.209c-0.022,0.004-0.043,0.004-0.069,0.004h-0.932v1.205h-0.251V15.679z M22.2,15.679h2.122v0.212
	h-1.88v1.188h1.646v0.217h-1.646V18.5h1.924v0.213H22.2V15.679z M19.57,15.702l0.75,2.651l0.796-2.673h0.243l-0.923,3.034h-0.247
	l-0.75-2.652l-0.741,2.652h-0.251l-0.91-3.034h0.256l0.779,2.687l0.75-2.665H19.57z M14.544,17.195c0,1.023,0.39,1.356,1.07,1.356
	c0.685,0,1.079-0.325,1.079-1.36c0-1.023-0.394-1.353-1.079-1.353C14.934,15.839,14.544,16.156,14.544,17.195 M14.293,17.195
	c0-1.122,0.459-1.563,1.321-1.563c0.888,0,1.33,0.441,1.33,1.563c0,1.118-0.464,1.564-1.33,1.564
	C14.743,18.759,14.293,18.313,14.293,17.195 M11.589,15.891v1.491h0.918c0.459,0,0.741-0.256,0.741-0.759
	c0-0.498-0.243-0.732-0.758-0.732H11.589z M11.338,15.679h1.148c0.702,0,1.014,0.325,1.014,0.937c0,0.597-0.32,0.979-1.022,0.979
	h-0.888v1.118h-0.251V15.679z M6.889,15.679h2.123v0.212h-1.88v1.188h1.646v0.217H7.131V18.5h1.924v0.213H6.889V15.679z
	 M5.358,17.295H3.465v1.417h-0.25v-3.034h0.25v1.399h1.894v-1.399H5.61v3.034H5.358V17.295z M2.347,15.679v0.212H1.304v2.822H1.056
	v-2.822H0.012v-0.212H2.347z"/>
</svg>
